<svg xmlns="http://www.w3.org/2000/svg" class="svg-logo" width="2400" height="2400" viewBox="0 0 630 430" style="height: auto;"><rect width="630" height="630" y="-100" rx="0" ry="0" fill="transparent" fill-opacity="0"></rect><g data-element="wrapper" transform="translate(-15.738224029544114 -9.48516464233606) scale(1.0500000000000098)"><g ><g data-element="icon" transform="scale(0.12811571726017787) translate(3448.6891812896547 1384.2998999173722)"><path id="color_x5F_2" d="M180.87,313.871c0,0,2.137,1.758,5.568,4.503c44.608-30.289,96.413-50.229,129.368-62.911    c8.564-3.294,15.963-6.141,21.328-8.441c6.922-2.965,13.505-4.47,19.568-4.47c11.883,0,21.779,5.987,26.47,16.015    c7.44,15.904,0.672,38.825-18.106,61.313c-0.111,0.135-0.225,0.267-0.336,0.399c19.66-11.354,38.424-24.925,51.426-37.928    c11.61-11.609,22.363-25.151,32.766-38.247c21.629-27.234,40.311-50.754,62.999-50.759h0.001c1.063,0,2.092,0.238,3.141,0.343    C562.033,99.331,530.686,19.29,459.773,6.545C359.654-11.451,297.676,75.424,297.676,75.424S235.697-11.451,135.578,6.545    C35.458,24.541,14.005,176.651,180.87,313.871z" fill="#e17276" fill-opacity="1"></path> <path id="color_x5F_1" d="M424.16,370.559c-112.291,89.99-206.069,74.036-214.685,220.627    c0,0-114.422-60.39-92.174-162.099c22.25-101.708,181.168-149.385,225.667-168.456c30.373-13.017,40.014,14.689,10.73,49.759    c-10.721,12.841-28.94,20.916-50.165,36.178c-6.525,4.691-1.891,14.998,5.94,13.19c34.213-7.903,87.512-37.298,117.152-66.937    c38.141-38.141,66.635-95.016,92.546-83.045C541.588,220.133,488.297,319.156,424.16,370.559z M170.79,329.016    c0,0-44.365-41.101-56.358-62.932c-55.533,88.844-12.74,156.72-12.74,156.72C109.504,378.784,139.119,346.702,170.79,329.016z" fill="#8ec1e8" fill-opacity="1"></path></g><path d="M151.27 220.08L154.26 224.97Q153.10 226.30 151.02 227.52Q148.93 228.74 146.24 229.52Q143.55 230.29 140.50 230.29L140.50 230.29Q135.28 230.29 131.09 227.82Q126.90 225.35 124.43 220.86Q121.96 216.36 121.96 210.32L121.96 210.32Q121.96 206.04 123.46 202.43Q124.96 198.83 127.62 196.16Q130.29 193.50 133.73 192.03Q137.17 190.56 141.00 190.56L141.00 190.56Q144.16 190.56 146.91 191.53Q149.66 192.50 151.74 194.03Q153.82 195.55 154.98 197.27L154.98 197.27L150.99 201.44Q148.93 199.33 146.44 197.94Q143.94 196.55 141.00 196.55L141.00 196.55Q137.67 196.55 134.70 198.22Q131.73 199.88 129.90 202.96Q128.07 206.04 128.07 210.32L128.07 210.32Q128.07 214.98 129.93 218.08Q131.79 221.19 134.87 222.72Q137.95 224.24 141.50 224.24L141.50 224.24Q144.77 224.24 147.27 222.94Q149.77 221.64 151.27 220.08L151.27 220.08ZM182.34 200.60L188.11 200.60L188.11 229.74L182.34 229.74L182.34 225.24Q181.01 227.07 178.40 228.68Q175.79 230.29 172.35 230.29L172.35 230.29Q168.69 230.29 165.67 228.35Q162.64 226.41 160.87 222.97Q159.09 219.53 159.09 215.09L159.09 215.09Q159.09 210.65 160.92 207.24Q162.75 203.82 165.97 201.91Q169.19 199.99 173.30 199.99L173.30 199.99Q176.35 199.99 178.65 201.32Q180.95 202.66 182.34 204.43L182.34 204.43L182.34 200.60ZM173.69 225.02L173.69 225.02Q176.35 225.02 178.35 223.72Q180.34 222.41 181.45 220.17Q182.56 217.92 182.56 215.09L182.56 215.09Q182.56 212.31 181.45 210.09Q180.34 207.87 178.35 206.57Q176.35 205.27 173.69 205.27L173.69 205.27Q171.13 205.27 169.13 206.54Q167.14 207.82 166.03 210.04Q164.92 212.26 164.92 215.09L164.92 215.09Q164.92 217.92 166.03 220.17Q167.14 222.41 169.13 223.72Q171.13 225.02 173.69 225.02ZM213.92 200.55L212.42 206.76Q211.87 206.49 211.06 206.29Q210.26 206.10 209.37 206.10L209.37 206.10Q207.59 206.10 205.87 207.01Q204.15 207.93 203.01 209.62Q201.88 211.31 201.88 213.64L201.88 213.64L201.88 229.74L196.10 229.74L196.10 200.60L201.88 200.60L201.88 206.10Q203.10 203.43 205.57 201.71Q208.04 199.99 210.76 199.99L210.76 199.99Q212.81 199.99 213.92 200.55L213.92 200.55ZM222.30 194.28L222.30 194.28Q220.36 194.28 219.41 193.28Q218.47 192.28 218.47 190.67L218.47 190.67Q218.47 189.28 219.41 188.17Q220.36 187.06 222.30 187.06L222.30 187.06Q224.24 187.06 225.18 188.06Q226.13 189.06 226.13 190.67L226.13 190.67Q226.13 192.06 225.18 193.17Q224.24 194.28 222.30 194.28ZM225.24 200.60L225.24 229.74L219.52 229.74L219.52 200.60L225.24 200.60ZM253.99 204.65L250.71 208.26Q249.16 206.71 247.19 205.71Q245.22 204.71 243.55 204.71L243.55 204.71Q242.39 204.71 241.25 204.99Q240.11 205.27 239.34 206.01Q238.56 206.76 238.56 208.21L238.56 208.21Q238.61 210.20 240.36 211.04Q242.11 211.87 244.72 212.53L244.72 212.53Q246.99 213.15 249.16 214.06Q251.32 214.98 252.74 216.72Q254.15 218.47 254.15 221.64L254.15 221.64Q254.15 224.36 252.63 226.30Q251.10 228.24 248.69 229.27Q246.27 230.29 243.61 230.29L243.61 230.29Q240.44 230.29 237.36 229.16Q234.29 228.02 232.12 225.24L232.12 225.24L236.01 221.91Q237.50 223.63 239.42 224.60Q241.33 225.58 244.11 225.58L244.11 225.58Q245.16 225.58 246.22 225.22Q247.27 224.85 248.02 224.05Q248.77 223.25 248.77 221.86L248.77 221.86Q248.77 220.53 247.96 219.78Q247.16 219.03 245.83 218.56Q244.50 218.08 242.89 217.70L242.89 217.70Q240.50 217.03 238.20 216.06Q235.89 215.09 234.37 213.28Q232.84 211.48 232.84 208.37L232.84 208.37Q232.84 205.76 234.31 203.91Q235.78 202.05 238.17 201.02Q240.56 199.99 243.28 199.99L243.28 199.99Q245.88 199.99 248.94 201.10Q251.99 202.21 253.99 204.65L253.99 204.65ZM281.84 200.60L287.62 200.60L287.62 229.74L281.84 229.74L281.84 225.24Q280.51 227.07 277.90 228.68Q275.30 230.29 271.85 230.29L271.85 230.29Q268.19 230.29 265.17 228.35Q262.14 226.41 260.37 222.97Q258.59 219.53 258.59 215.09L258.59 215.09Q258.59 210.65 260.42 207.24Q262.25 203.82 265.47 201.91Q268.69 199.99 272.80 199.99L272.80 199.99Q275.85 199.99 278.15 201.32Q280.46 202.66 281.84 204.43L281.84 204.43L281.84 200.60ZM273.19 225.02L273.19 225.02Q275.85 225.02 277.85 223.72Q279.85 222.41 280.96 220.17Q282.07 217.92 282.07 215.09L282.07 215.09Q282.07 212.31 280.96 210.09Q279.85 207.87 277.85 206.57Q275.85 205.27 273.19 205.27L273.19 205.27Q270.63 205.27 268.64 206.54Q266.64 207.82 265.53 210.04Q264.42 212.26 264.42 215.09L264.42 215.09Q264.42 217.92 265.53 220.17Q266.64 222.41 268.64 223.72Q270.63 225.02 273.19 225.02ZM339.11 220.08L342.11 224.97Q340.95 226.30 338.86 227.52Q336.78 228.74 334.09 229.52Q331.40 230.29 328.35 230.29L328.35 230.29Q323.13 230.29 318.94 227.82Q314.75 225.35 312.28 220.86Q309.81 216.36 309.81 210.32L309.81 210.32Q309.81 206.04 311.31 202.43Q312.81 198.83 315.47 196.16Q318.14 193.50 321.58 192.03Q325.02 190.56 328.85 190.56L328.85 190.56Q332.01 190.56 334.76 191.53Q337.50 192.50 339.59 194.03Q341.67 195.55 342.83 197.27L342.83 197.27L338.84 201.44Q336.78 199.33 334.29 197.94Q331.79 196.55 328.85 196.55L328.85 196.55Q325.52 196.55 322.55 198.22Q319.58 199.88 317.75 202.96Q315.92 206.04 315.92 210.32L315.92 210.32Q315.92 214.98 317.78 218.08Q319.64 221.19 322.72 222.72Q325.80 224.24 329.35 224.24L329.35 224.24Q332.62 224.24 335.12 222.94Q337.62 221.64 339.11 220.08L339.11 220.08ZM370.19 200.60L375.96 200.60L375.96 229.74L370.19 229.74L370.19 225.24Q368.86 227.07 366.25 228.68Q363.64 230.29 360.20 230.29L360.20 230.29Q356.54 230.29 353.51 228.35Q350.49 226.41 348.71 222.97Q346.94 219.53 346.94 215.09L346.94 215.09Q346.94 210.65 348.77 207.24Q350.60 203.82 353.82 201.91Q357.04 199.99 361.15 199.99L361.15 199.99Q364.20 199.99 366.50 201.32Q368.80 202.66 370.19 204.43L370.19 204.43L370.19 200.60ZM361.53 225.02L361.53 225.02Q364.20 225.02 366.20 223.72Q368.19 222.41 369.30 220.17Q370.41 217.92 370.41 215.09L370.41 215.09Q370.41 212.31 369.30 210.09Q368.19 207.87 366.20 206.57Q364.20 205.27 361.53 205.27L361.53 205.27Q358.98 205.27 356.98 206.54Q354.99 207.82 353.88 210.04Q352.77 212.26 352.77 215.09L352.77 215.09Q352.77 217.92 353.88 220.17Q354.99 222.41 356.98 223.72Q358.98 225.02 361.53 225.02ZM401.77 200.55L400.27 206.76Q399.71 206.49 398.91 206.29Q398.10 206.10 397.22 206.10L397.22 206.10Q395.44 206.10 393.72 207.01Q392.00 207.93 390.86 209.62Q389.73 211.31 389.73 213.64L389.73 213.64L389.73 229.74L383.95 229.74L383.95 200.60L389.73 200.60L389.73 206.10Q390.95 203.43 393.42 201.71Q395.88 199.99 398.60 199.99L398.60 199.99Q400.66 199.99 401.77 200.55L401.77 200.55ZM427.29 221.75L430.13 225.91L430.07 225.91Q428.29 227.63 425.19 228.96Q422.08 230.29 418.69 230.29L418.69 230.29Q414.14 230.29 410.67 228.38Q407.21 226.46 405.26 223.11Q403.32 219.75 403.32 215.48L403.32 215.48Q403.32 210.59 405.37 207.12Q407.43 203.66 410.81 201.80Q414.20 199.94 418.19 199.94L418.19 199.94Q421.86 199.94 424.85 201.74Q427.85 203.54 429.63 206.71Q431.40 209.87 431.40 214.09L431.40 214.09L431.35 216.53L409.04 216.53Q409.54 220.47 412.28 222.77Q415.03 225.08 419.25 225.08L419.25 225.08Q422.30 225.08 424.19 223.94Q426.07 222.80 427.29 221.75L427.29 221.75ZM418.19 205.21L418.19 205.21Q414.92 205.21 412.48 206.74Q410.04 208.26 409.26 211.98L409.26 211.98L425.57 211.98L425.57 211.59Q425.41 209.70 424.33 208.26Q423.24 206.82 421.63 206.01Q420.03 205.21 418.19 205.21Z" data-element="company-name" data-text-path="" data-text="Carisa Care" data-font-family="Lexend Deca" fill="#000000" fill-opacity="1"></path></g></g></svg>